# xmcd
#
# Track frame offsets:
#	150
#	17215
#	33055
#	55259
#	71104
#	87031
#	101130
#	117838
#	130628
#	144498
#	158651
#	176762
#	195661
#	211166
#	227470
#	245449
#	262193
#	281488
#	309508
#	343975
#
# Disc length: 4796 seconds
#
# Revision: 0
# Processed by: cddbd v1.5.2PL0 Copyright (c) Steve Scherf et al.
# Submitted via: audiograbber 1.83.01
#
DISCID=1c12ba14
DTITLE=Various Artist - 100 Hits Disco Fever CD2
DYEAR=1900
DGENRE=Disco
TTITLE0=The Jacksons - Shake Your Body (Down To The Ground)
TTITLE1=Billy Ocean - Red Light Spells Danger
TTITLE2=O'Jays - Sing A Happy Song
TTITLE3=Harold Melvin and The Blue Notes - Satisfaction Guaranteed (Or Take Your 
TTITLE3=Love Back)
TTITLE4=The Drifters - Kissin' In The Back Row Of The Movies
TTITLE5=Gladys Knight and The Pips - Baby Don't Change Your Mind
TTITLE6=The Emotions - Best Of My Love
TTITLE7=The Tymes - You Little Trustmaker
TTITLE8=Sly and The Family Stone - Family Affair
TTITLE9=The Hues Corporation - Rock The Boat
TTITLE10=Heatwave - Gangsters Of The Groove
TTITLE11=Bobby Womack - It's Party Time
TTITLE12=Dan Hartman - Instant Replay
TTITLE13=Earth, Wind And Fire - September
TTITLE14=Bruce Johnston - Pipeline
TTITLE15=Al Matthews - Fool
TTITLE16=Johnnie Taylor - Disco Lady
TTITLE17=Archie Bell And The Drells - Everybody Have A Good Time
TTITLE18=Chocolate Milk - Blue Jeans
TTITLE19=Boney M - Daddy Cool
EXTD=(p)2014 Demon Music Group
EXTT0=
EXTT1=
EXTT2=
EXTT3=
EXTT4=
EXTT5=
EXTT6=
EXTT7=
EXTT8=
EXTT9=
EXTT10=
EXTT11=
EXTT12=
EXTT13=
EXTT14=
EXTT15=
EXTT16=
EXTT17=
EXTT18=
EXTT19=
PLAYORDER=
